<svg xmlns="http://www.w3.org/2000/svg" version="1.1" xmlns:xlink="http://www.w3.org/1999/xlink" xmlns:svgjs="http://svgjs.dev/svgjs" width="128" height="128" viewBox="0 0 128 128"><g transform="matrix(0.8046875,0,0,0.8046875,12.612792253521128,12.612792253521128)"><svg viewBox="0 0 142 142" data-background-color="#915eff" preserveAspectRatio="xMidYMid meet" height="128" width="128" xmlns="http://www.w3.org/2000/svg" xmlns:xlink="http://www.w3.org/1999/xlink"><g id="tight-bounds" transform="matrix(1,0,0,1,-0.15550000000000352,-0.15550000000000352)"><svg viewBox="0 0 142.31066447748242 142.31066447748242" height="142.31066447748242" width="142.31066447748242"><g><svg></svg></g><g><svg viewBox="0 0 142.31066447748242 142.31066447748242" height="142.31066447748242" width="142.31066447748242"><g><path d="M0 71.155c0-39.298 31.857-71.155 71.155-71.155 39.298 0 71.155 31.857 71.156 71.155 0 39.298-31.857 71.155-71.156 71.156-39.298 0-71.155-31.857-71.155-71.156zM71.155 134.886c35.197 0 63.731-28.533 63.731-63.731 0-35.197-28.533-63.731-63.731-63.73-35.197 0-63.731 28.533-63.73 63.73 0 35.197 28.533 63.731 63.73 63.731z" data-fill-palette-color="tertiary" fill="#ffffff" stroke="transparent"></path><ellipse rx="68.30911894919156" ry="68.30911894919156" cx="71.15533223874121" cy="71.15533223874121" fill="#ffffff" stroke="transparent" stroke-width="0" fill-opacity="1" data-fill-palette-color="tertiary"></ellipse></g><g transform="matrix(1,0,0,1,39.29220973708428,29.989108276746492)"><svg viewBox="0 0 63.72624500331386 82.33244792398943" height="82.33244792398943" width="63.72624500331386"><g><svg viewBox="0 0 63.72624500331386 82.33244792398943" height="82.33244792398943" width="63.72624500331386"><g><svg viewBox="0 0 63.72624500331386 82.33244792398943" height="82.33244792398943" width="63.72624500331386"><g><svg viewBox="0 0 63.72624500331386 82.33244792398943" height="82.33244792398943" width="63.72624500331386"><g><svg viewBox="0 0 63.72624500331386 82.33244792398943" height="82.33244792398943" width="63.72624500331386"><g transform="matrix(1,0,0,1,0,0)"><svg width="63.72624500331386" viewBox="3 -35.4 27.4 35.4" height="82.33244792398943" data-palette-color="#915eff"><path d="M27.95 0L4 0 3-3 4-8 4-35.4 13-35.4 13-14.85 12.5-8 13.5-8 22.45-8.5 26-9 30.4-3.2 27.95 0Z" opacity="1" transform="matrix(1,0,0,1,0,0)" fill="#915eff" class="undefined-text-0" data-fill-palette-color="quaternary" id="text-0"></path></svg></g></svg></g></svg></g></svg></g><g></g></svg></g></svg></g></svg></g><defs></defs></svg><rect width="142.31066447748242" height="142.31066447748242" fill="none" stroke="none" visibility="hidden"></rect></g></svg></g></svg>